<svg xmlns="http://www.w3.org/2000/svg" viewBox="0 0 1200 720" role="img" aria-label="Illustrative Lineage tree view example">
  <defs>
    <linearGradient id="bg" x1="0" y1="0" x2="0" y2="1">
      <stop offset="0%" stop-color="#f8fafc"/>
      <stop offset="100%" stop-color="#eef2f7"/>
    </linearGradient>
    <linearGradient id="panel" x1="0" y1="0" x2="0" y2="1">
      <stop offset="0%" stop-color="#ffffff"/>
      <stop offset="100%" stop-color="#f7f8fb"/>
    </linearGradient>
    <linearGradient id="head" x1="0" y1="0" x2="1" y2="0">
      <stop offset="0%" stop-color="#0f172a"/>
      <stop offset="100%" stop-color="#1f2937"/>
    </linearGradient>
    <filter id="shadow" x="-20%" y="-20%" width="140%" height="140%">
      <feDropShadow dx="0" dy="10" stdDeviation="12" flood-color="#0f172a" flood-opacity="0.14"/>
    </filter>
    <style>
      .ui{font-family:Segoe UI,Arial,sans-serif}
      .mono{font-family:Consolas,Menlo,monospace}
      .muted{fill:#64748b}
      .title{fill:#0f172a;font-weight:700}
      .small{font-size:18px}
      .med{font-size:22px}
    </style>
  </defs>
  <rect width="1200" height="720" fill="url(#bg)"/>
  <g class="ui" filter="url(#shadow)">
    <rect x="48" y="36" width="1104" height="648" rx="24" fill="url(#panel)" stroke="#d7dde8"/>
    <rect x="48" y="36" width="1104" height="56" rx="24" fill="url(#head)"/>
    <rect x="48" y="68" width="1104" height="24" fill="url(#head)"/>
    <circle cx="82" cy="64" r="7" fill="#ef4444"/>
    <circle cx="104" cy="64" r="7" fill="#f59e0b"/>
    <circle cx="126" cy="64" r="7" fill="#10b981"/>
    <text x="160" y="71" font-size="22" fill="#fff" font-weight="600">Lineage Tool Window</text>

    <rect x="70" y="116" width="300" height="540" rx="16" fill="#fbfcfe" stroke="#e2e8f0"/>
    <text x="94" y="152" class="title med">Focused Value</text>
    <rect x="94" y="170" width="252" height="60" rx="12" fill="#edf4ff" stroke="#b7d4ff"/>
    <text x="112" y="198" class="small muted">Expression</text>
    <text x="112" y="218" class="mono med" fill="#1459c7">total = subtotal - discount</text>

    <text x="94" y="274" class="title med">Tree Summary</text>
    <rect x="94" y="290" width="252" height="188" rx="14" fill="#ffffff" stroke="#e2e8f0"/>
    <g class="small">
      <text x="112" y="326" fill="#0f172a">Total nodes: 6</text>
      <text x="112" y="360" fill="#0f172a">Total edges: 5</text>
      <text x="112" y="394" fill="#0f172a">Depth: 3</text>
      <text x="112" y="428" fill="#1459c7">Selected path: 4 nodes</text>
      <text x="112" y="462" fill="#0f172a">Other dependencies: 2</text>
    </g>

    <text x="94" y="530" class="title med">Properties</text>
    <rect x="94" y="546" width="252" height="86" rx="14" fill="#ffffff" stroke="#e2e8f0"/>
    <text x="112" y="578" class="small muted">Source</text>
    <text x="112" y="602" class="small mono" fill="#1459c7">CheckoutService.cs:42</text>

    <rect x="392" y="116" width="732" height="540" rx="16" fill="#ffffff" stroke="#e2e8f0"/>
    <text x="418" y="152" class="title med">Lineage Tree</text>
    <text x="930" y="152" class="small muted">illustrative preview</text>

    <g transform="translate(410,175)" fill="none" stroke-linecap="round" stroke-linejoin="round">
      <g stroke="#d0d7e2" stroke-width="10">
        <path d="M345 52 C345 89 384 98 431 135"/>
        <path d="M304 94 C300 117 259 131 227 169"/>
        <path d="M230 204 C175 234 147 259 146 305"/>
        <path d="M230 204 C283 227 309 263 309 305"/>
        <path d="M431 135 C449 176 433 214 392 249"/>
        <path d="M431 135 C503 153 536 176 564 225"/>
        <path d="M392 249 L392 351"/>
        <path d="M392 249 C450 274 488 312 492 355"/>
      </g>
      <g stroke="#111827" stroke-width="12">
        <path d="M345 52 C338 88 320 96 304 94"/>
        <path d="M227 169 C227 183 228 193 230 204"/>
        <path d="M230 204 C175 234 147 259 146 305"/>
        <path d="M230 204 C283 227 309 263 309 305"/>
        <path d="M431 135 C503 153 536 176 564 225"/>
        <path d="M392 249 C450 274 488 312 492 355"/>
      </g>
      <g stroke="#1e78ff" stroke-width="14">
        <path d="M345 52 C345 89 384 98 431 135"/>
        <path d="M431 135 C449 176 433 214 392 249"/>
        <path d="M392 249 L392 351"/>
      </g>
      <g fill="#fff" stroke-width="12">
        <circle cx="345" cy="52" r="23" stroke="#1e78ff"/>
        <circle cx="227" cy="169" r="23" stroke="#111827"/>
        <circle cx="146" cy="305" r="23" stroke="#111827"/>
        <circle cx="309" cy="305" r="23" stroke="#111827"/>
        <circle cx="431" cy="135" r="23" stroke="#1e78ff"/>
        <circle cx="564" cy="225" r="23" stroke="#111827"/>
        <circle cx="392" cy="249" r="23" stroke="#1e78ff"/>
        <circle cx="492" cy="355" r="23" stroke="#111827"/>
        <circle cx="392" cy="351" r="23" stroke="#1e78ff"/>
      </g>
      <g class="ui small" fill="#0f172a" stroke="none">
        <text x="328" y="18">result</text>
        <text x="208" y="140">total</text>
        <text x="111" y="338">tax</text>
        <text x="287" y="338">coupon</text>
        <text x="423" y="103" fill="#1459c7">selected lineage chain</text>
        <text x="547" y="198">discount</text>
        <text x="500" y="390">other input</text>
        <text x="360" y="393">subtotal</text>
      </g>
    </g>

    <rect x="778" y="548" width="322" height="84" rx="14" fill="#0f172a"/>
    <text x="804" y="581" font-size="20" fill="#dbeafe" font-weight="700">Understand your data, end to end.</text>
    <text x="804" y="607" font-size="18" fill="#ffffff">Click a node to inspect where it came from.</text>
  </g>
</svg>
